# xmcd
#
# Track frame offsets: 
#        210
#        26325
#        47121
#        105252
#        140251
#        181206
#
# Disc length: 2974 seconds
#
# Revision: 2
# Processed by: cddbd v1.5.2PL0 Copyright (c) Steve Scherf et al.
# Submitted via: ExactAudioCopyFreeDBPlugin 1.0
#
DISCID=400b9c06
DTITLE=Kudsi Erguner - Ottomania - Sufi Jazz Project
DYEAR=1999
DGENRE=Jazz
TTITLE0=Semai
TTITLE1=Sufimaj
TTITLE2=Dua
TTITLE3=Free space
TTITLE4=Nefes
TTITLE5=Hi-Jaz
EXTD=YEAR: 1999
EXTT0=
EXTT1=
EXTT2=
EXTT3=
EXTT4=
EXTT5=
PLAYORDER=
